<svg width="190" height="66" viewBox="0 0 190 66" fill="none" xmlns="http://www.w3.org/2000/svg">
<rect width="190" height="66" fill="black"/>
<path d="M16.9795 17.1973H22.0585C21.964 12.2399 17.9791 8.95746 12.2247 8.95746C6.49733 8.95746 2.21531 12.0778 2.21531 16.7245C2.21531 20.7094 5.40319 23.2219 9.90134 24.5727L11.3602 24.9914C15.4531 26.2477 17.02 27.3958 17.02 29.3275C17.02 31.2861 15.237 32.9206 12.0356 32.9206C8.99631 32.9206 6.80802 31.4617 6.64592 28.6251H1.43184C1.5264 34.5145 6.37576 37.4187 12.0356 37.4187C18.1547 37.4187 22.1801 34.2984 22.1801 29.2869C22.1801 25.0049 19.2624 22.7221 14.0618 21.0201L12.6435 20.5608C9.45558 19.5207 7.41588 18.6021 7.41588 16.7245C7.41588 14.7929 9.36102 13.4691 12.1977 13.4691C15.1019 13.4691 16.7499 14.8604 16.9795 17.1973ZM52.8736 16.2518H47.754L44.8904 29.6922H44.6337L41.0676 16.2518H37.1098L33.5302 29.7867H33.2735L30.4503 16.2518H25.3308L30.8015 37H35.2322L38.9198 24.0729H39.244L42.9722 37H47.3893L52.8736 16.2518ZM59.1987 14.5227C60.9007 14.5227 62.1569 13.2665 62.1569 11.7401C62.1569 10.2542 60.9007 8.95746 59.1987 8.95746C57.4967 8.95746 56.1864 10.2542 56.1864 11.7401C56.1864 13.2665 57.4967 14.5227 59.1987 14.5227ZM61.8057 16.2518H56.5646V37H61.8057V16.2518ZM76.5733 16.2518H72.9532V11.8211H67.7121V16.2518H65.132V20.1421H67.7121V31.4482C67.7121 35.0954 70.4407 37.2702 73.588 37.2702C75.5062 37.2702 76.8164 36.9054 77.2082 36.7433L76.3842 32.7045C76.033 32.799 75.5332 32.8666 75.0469 32.8666C73.8987 32.8666 72.9532 32.5829 72.9532 30.6513V20.1421H76.5733V16.2518ZM97.8416 22.8707C97.0851 18.6832 93.6811 15.9816 88.9669 15.9816C83.0234 15.9816 79.3222 20.3717 79.3222 26.6259C79.3222 32.9341 82.9828 37.3917 88.9804 37.3917C93.6541 37.3917 96.9771 34.6901 97.8011 30.7323L92.8977 30.0299C92.3709 31.894 91.0606 33.0962 88.9804 33.0962C85.86 33.0962 84.3471 30.5162 84.3471 26.6259C84.3471 22.7761 85.887 20.2366 88.9804 20.2366C91.2767 20.2366 92.4789 21.6414 92.9652 23.6001L97.8416 22.8707ZM106.456 25.4912C106.456 22.3033 107.915 20.3041 110.306 20.3041C112.359 20.3041 113.332 21.709 113.332 23.9243V37H118.586V23.9648C118.586 18.5751 115.925 15.9816 112.143 15.9816C109.59 15.9816 107.672 17.1298 106.524 18.6967H106.308V9.33568H101.215V37H106.456V25.4912ZM132.202 37.3917C137.592 37.3917 140.294 34.3389 141.05 31.4887L136.349 30.219C135.796 31.7589 134.661 33.0962 132.162 33.0962C129.177 33.0962 127.556 31.2321 127.218 28.1523H141.266V25.9505C141.266 19.2911 137.254 15.9816 131.986 15.9816C125.773 15.9816 122.153 20.5608 122.153 26.896C122.153 33.3799 125.975 37.3917 132.202 37.3917ZM131.946 20.2366C134.701 20.2366 136.295 22.1007 136.295 24.5457H127.367C127.92 21.817 129.541 20.2366 131.946 20.2366ZM158.084 16.6435C157.435 16.2653 156.301 15.9681 155.22 15.9681C153.194 15.9681 151.073 17.0893 150.479 19.1965H150.182V16.2518H145.049V37H150.29V25.2346C150.317 22.9382 152.032 20.7634 154.518 20.7634C155.369 20.7634 156.166 21.0336 156.449 21.1957L158.084 16.6435Z" transform="translate(15.2 10.1538)" fill="white"/>
</svg>
